<svg width="24" height="24" viewBox="0 0 24 24" fill="none" xmlns="http://www.w3.org/2000/svg">
<path d="M9.6895 16.1684L6.43471 12.9146H19.4286C19.6332 12.9146 19.8294 12.8334 19.9741 12.6887C20.1187 12.544 20.2 12.3478 20.2 12.1433C20.2 11.9387 20.1187 11.7425 19.9741 11.5978C19.8294 11.4531 19.6332 11.3719 19.4286 11.3719H6.43471L9.6895 8.1181L9.68952 8.11808C9.76121 8.04638 9.81809 7.96127 9.85689 7.86759C9.89569 7.77391 9.91566 7.67351 9.91566 7.57211C9.91566 7.47072 9.89569 7.37032 9.85689 7.27664C9.81809 7.18296 9.76121 7.09784 9.68952 7.02615C9.61782 6.95445 9.5327 6.89758 9.43903 6.85877L9.36249 7.04355L9.43903 6.85877C9.34535 6.81997 9.24495 6.8 9.14355 6.8C9.04215 6.8 8.94175 6.81997 8.84807 6.85877C8.7544 6.89758 8.66928 6.95445 8.59758 7.02615L4.02663 11.5971L4.16787 11.7387L4.02645 11.5973L4.02658 11.5972C3.95476 11.6688 3.89779 11.7539 3.85891 11.8476L4.04363 11.9243L3.85891 11.8476C3.82002 11.9413 3.8 12.0418 3.8 12.1433C3.8 12.2447 3.82002 12.3452 3.85891 12.4389C3.89777 12.5326 3.95472 12.6176 4.0265 12.6893C4.02654 12.6893 4.02658 12.6894 4.02663 12.6894L8.59758 17.2604C8.66928 17.3321 8.7544 17.3889 8.84807 17.4277C8.94175 17.4665 9.04216 17.4865 9.14355 17.4865C9.24494 17.4865 9.34535 17.4665 9.43903 17.4277C9.5327 17.3889 9.61782 17.3321 9.68952 17.2604L9.5481 17.1189L9.68952 17.2604C9.76121 17.1887 9.81809 17.1035 9.85689 17.0099C9.89569 16.9162 9.91566 16.8158 9.91566 16.7144C9.91566 16.613 9.89569 16.5126 9.85689 16.4189C9.81809 16.3252 9.76121 16.2401 9.68952 16.1684L9.6895 16.1684Z" fill="#151E35" stroke="#151E35" stroke-width="0.4"/>
</svg>
